<svg id="Layer_35" enable-background="new 0 0 64 64" height="512" viewBox="0 0 64 64" width="512" xmlns="http://www.w3.org/2000/svg"><path d="m42 36c0 2.21 1.34 4 3 4s3-1.79 3-4c0-.62-.11-1.19-.3-1.72 5.88 1.24 10.3 6.47 10.3 12.72v3h-5-11.62c-.93-.97-2.01-1.8-3.2-2.44-1.84-.99-3.94-1.56-6.18-1.56 3.87 0 7-3.13 7-7 0-1.13-.26-2.18-.73-3.12.57-.34 1.04-.58 4.03-1.6v.01c-.19.52-.3 1.1-.3 1.71z" fill="#e6e9ed"/><path d="m11.19 36.61 3.81 8.39 4-5 4 5 2.02-4.43.15-.04c.69 3.13 3.49 5.47 6.83 5.47-2.24 0-4.34.57-6.18 1.56-1.11.6-2.12 1.36-3.01 2.25-.06.06-.12.12-.19.19h-11.62-5v-3c0-3.59 1.46-6.84 3.81-9.19.43-.43.89-.83 1.38-1.2z" fill="#e6e9ed"/><path d="m23.99 35.01-4.99 4.99-5-5c1.54-.64 3.23-1 5-1s3.45.35 4.99 1.01z" fill="#f0d0b4"/><path d="m25 39c0 .53.06 1.04.17 1.53l-.15.04-2.02 4.43-4-5 4.99-4.99c.6.23 1.19.53 1.74.87-.47.94-.73 1.99-.73 3.12z" fill="#ff826e"/><path d="m19 40-4 5-3.81-8.39c.86-.65 1.8-1.19 2.81-1.61z" fill="#ff826e"/><path d="m24 62h-5v-3c0-3.5 1.38-6.67 3.62-9 .07-.07.13-.13.19-.19.89-.89 1.9-1.65 3.01-2.25l6.18 14.44z" fill="#5cd6b3"/><path d="m40 62h-8l6.18-14.44c1.19.64 2.27 1.47 3.2 2.44 2.24 2.33 3.62 5.5 3.62 9v3z" fill="#5cd6b3"/><path d="m38.18 47.56-6.18 14.44-6.18-14.44c1.84-.99 3.94-1.56 6.18-1.56s4.34.57 6.18 1.56z" fill="#ccd1d9"/><path d="m47.7 34.28c.19.53.3 1.1.3 1.72 0 2.21-1.34 4-3 4s-3-1.79-3-4c0-.61.11-1.19.3-1.71v-.01c.87-.18 1.78-.28 2.7-.28.93 0 1.83.1 2.7.28z" fill="#f0d0b4"/><path d="m32 8c3.87 0 7 3.13 7 7s-3.13 7-7 7-7-3.13-7-7 3.13-7 7-7zm3 7c0-1.66-1.34-3-3-3s-3 1.34-3 3 1.34 3 3 3 3-1.34 3-3z" fill="#fcd770"/><path d="m45 15v2.34l-1.87.45c-.26 1.03-.66 2.01-1.17 2.91-1.78.85-3.14 2.44-3.69 4.37l-.34-.22c-.98.6-2.05 1.05-3.2 1.33l-.44 1.87h-4.58l-.44-1.87c-1.15-.28-2.22-.73-3.2-1.33l-.34.22c-.55-1.93-1.91-3.52-3.69-4.37-.51-.9-.91-1.88-1.17-2.91l-1.87-.44v-2.35-2.29l1.87-.44c.28-1.15.73-2.22 1.33-3.2l-1.01-1.64 3.24-3.24 1.64 1.01c.98-.6 2.05-1.05 3.2-1.33l.44-1.87h4.58l.44 1.87c1.15.28 2.22.73 3.2 1.33l1.64-1.01 3.24 3.24-1.01 1.64c.6.98 1.05 2.05 1.33 3.2l1.87.44zm-6 0c0-3.87-3.13-7-7-7s-7 3.13-7 7 3.13 7 7 7 7-3.13 7-7z" fill="#ffc729"/><g fill="#f0d0b4"><path d="m38.27 25.07c.55-1.93 1.91-3.52 3.69-4.37.92-.45 1.95-.7 3.04-.7 3.87 0 7 3.13 7 7s-3.13 7-7 7-7-3.13-7-7c0-.67.09-1.32.27-1.93z"/><path d="m38.27 35.88c.47.94.73 1.99.73 3.12 0 3.87-3.13 7-7 7-3.34 0-6.14-2.34-6.83-5.47-.11-.49-.17-1-.17-1.53 0-1.13.26-2.18.73-3.12 1.15-2.3 3.52-3.88 6.27-3.88s5.12 1.58 6.27 3.88z"/><path d="m25.73 25.07c.18.61.27 1.26.27 1.93 0 3.87-3.13 7-7 7s-7-3.13-7-7 3.13-7 7-7c1.09 0 2.12.25 3.04.7 1.78.85 3.14 2.44 3.69 4.37z"/></g><path d="m59 47c0-6.199-4.053-11.462-9.646-13.298 2.191-1.428 3.646-3.897 3.646-6.702 0-4.411-3.589-8-8-8-.423 0-.835.043-1.24.106.056-.162.127-.32.176-.484l2.064-.486v-6.222l-2.062-.486c-.242-.812-.567-1.596-.972-2.343l1.115-1.803-4.363-4.364-1.803 1.116c-.746-.403-1.53-.729-2.344-.972l-.485-2.062h-6.172l-.485 2.062c-.813.243-1.598.568-2.344.972l-1.803-1.116-4.363 4.364 1.115 1.803c-.404.747-.729 1.531-.972 2.343l-2.062.487v6.223l2.063.486c.049.163.12.321.176.483-.404-.064-.816-.107-1.239-.107-4.411 0-8 3.589-8 8 0 2.805 1.455 5.274 3.646 6.702-5.593 1.836-9.646 7.099-9.646 13.298v4h15.527c-1.588 2.27-2.527 5.026-2.527 8v4h28v-4c0-2.974-.939-5.73-2.527-8h15.527zm-12-11c0 1.626-.916 3-2 3s-2-1.374-2-3c0-.284.04-.565.1-.844.626-.1 1.26-.156 1.9-.156.649 0 1.282.066 1.903.166.058.276.097.554.097.834zm-15 9c-3.309 0-6-2.691-6-6s2.691-6 6-6 6 2.691 6 6-2.691 6-6 6zm-7.784-8.802c.085.041.171.079.255.122-.299.84-.471 1.739-.471 2.68 0 .399.039.789.096 1.173l-1.332 2.931-2.424-3.029zm7.784-5.198c-2.758 0-5.194 1.403-6.633 3.533-.648-.331-1.321-.606-2.011-.832 2.19-1.429 3.644-3.897 3.644-6.701 0-.186-.015-.368-.028-.55.474.209.96.39 1.457.539l.485 2.062h6.172l.485-2.062c.497-.149.983-.33 1.457-.539-.013.182-.028.364-.028.55 0 2.805 1.454 5.272 3.644 6.701-.689.225-1.362.502-2.01.833-1.439-2.13-3.876-3.534-6.634-3.534zm19-4c0 3.309-2.691 6-6 6s-6-2.691-6-6 2.691-6 6-6 6 2.691 6 6zm-29.157-9.452-.146-.595-1.697-.4v-3.056l1.696-.399.146-.595c.252-1.028.658-2.011 1.21-2.919l.317-.523-.918-1.483 2.125-2.125 1.483.918.523-.318c.906-.55 1.889-.958 2.92-1.21l.595-.146.401-1.697h3.004l.399 1.696.595.146c1.031.253 2.014.66 2.92 1.21l.523.318 1.483-.918 2.125 2.125-.917 1.484.317.523c.552.908.958 1.891 1.21 2.919l.146.595 1.697.4v3.056l-1.696.399-.146.595c-.202.827-.53 1.633-.945 2.408-1.587.857-2.853 2.235-3.568 3.903l-.228.138c-.906.55-1.889.958-2.92 1.21l-.595.146-.399 1.696h-3.004l-.399-1.697-.595-.146c-1.029-.252-2.012-.659-2.92-1.21l-.228-.138c-.715-1.669-1.981-3.047-3.568-3.904-.416-.773-.744-1.579-.946-2.406zm-8.843 9.452c0-3.309 2.691-6 6-6s6 2.691 6 6-2.691 6-6 6-6-2.691-6-6zm9.161 8.425-3.161 3.161-3.152-3.152c1.006-.275 2.06-.434 3.152-.434 1.075 0 2.137.146 3.161.425zm-4.501 4.649-2.424 3.029-2.792-6.142c.43-.282.882-.53 1.348-.756zm-10.66 6.926c0-3.458 1.479-6.57 3.828-8.762l3.936 8.659 4.236-5.296 4.236 5.296 1.803-3.967c.635 1.12 1.531 2.072 2.606 2.773-2.06.676-3.909 1.815-5.425 3.298h-10.22v-6h-2v6h-3zm25 0c1.738 0 3.386.379 4.879 1.047l-4.879 11.408-4.879-11.409c1.493-.667 3.141-1.046 4.879-1.046zm-12 12c0-4.162 2.131-7.833 5.358-9.986l5.126 11.986h-5.484v-6h-2v6h-3zm24 2h-3v-6h-2v6h-5.484l5.126-11.986c3.227 2.153 5.358 5.824 5.358 9.986zm13-12h-3v-6h-2v6h-10.221c-1.516-1.483-3.366-2.622-5.425-3.298 2.191-1.428 3.646-3.897 3.646-6.702 0-.94-.172-1.839-.471-2.678.485-.249.986-.465 1.499-.644-.006.107-.028.214-.028.322 0 2.757 1.794 5 4 5s4-2.243 4-5c0-.104-.021-.206-.027-.31 4.667 1.645 8.027 6.087 8.027 11.31z"/><path d="m32 19c2.206 0 4-1.794 4-4s-1.794-4-4-4-4 1.794-4 4 1.794 4 4 4zm0-6c1.103 0 2 .897 2 2s-.897 2-2 2-2-.897-2-2 .897-2 2-2z"/><path d="m32 23c4.411 0 8-3.589 8-8s-3.589-8-8-8-8 3.589-8 8 3.589 8 8 8zm0-14c3.309 0 6 2.691 6 6s-2.691 6-6 6-6-2.691-6-6 2.691-6 6-6z"/></svg>